Coordinates
version=1
nRows=22
nColumns=13
inDegrees=yes

Units are S.I. units (second, meters, Newtons, ...)
If the header above contains a line with 'inDegrees', this indicates whether rotational values are in degrees (yes) or radians (no).

endheader
time	bJoint_3	seatpos	hipangle	kneeangle	footangle	lbackangle	uarmleft_out	uarmleft_trn	uarmleft_up	uarmright_out	uarmright_trn	uarmright_up
      5.22500000	      0.00000002	     -0.00278543	     94.58915154	      2.93632503	      7.52547657	    -40.34999392	     68.69797910	     -9.44938788	      0.00000000	     72.27426963	    -10.07652541	      0.00000000
      5.23000000	      0.00000002	     -0.00279187	     94.57253270	      2.96717828	      7.53971098	    -40.35321202	     68.23985598	     -8.79999171	      0.00000000	     71.79734946	     -9.63100501	      0.00000000
      5.23500000	      0.00000002	     -0.00280229	     94.54602301	      3.01639575	      7.56241876	    -40.35301162	     67.93943183	     -8.38225951	      0.00000000	     71.47302595	     -9.16045525	      0.00000000
      5.24000000	      0.00000002	     -0.00281377	     94.51731982	      3.06968794	      7.58700775	    -40.35249419	     67.49023068	     -7.94257272	      0.00000000	     71.00737883	     -8.71721394	      0.00000000
      5.24500000	      0.00000002	     -0.00283933	     94.45512411	      3.18517264	      7.64029675	    -40.34336515	     67.05677438	     -7.50490011	      0.00000000	     70.70413114	     -8.25272024	      0.00000000
      5.25000000	      0.00000002	     -0.00284237	     94.44788066	      3.19862299	      7.64650364	    -40.34809643	     66.75043922	     -7.08532653	      0.00000000	     70.23494294	     -7.81106679	      0.00000000
      5.25500000	      0.00000002	     -0.00284434	     94.44319305	      3.20732747	      7.65052051	    -40.35072037	     66.30147392	     -6.64729622	      0.00000000	     69.92726277	     -7.17714148	      0.00000000
      5.26000000	      0.00000002	     -0.00287489	     94.37216121	      3.33923501	      7.71139622	    -40.33888921	     66.03282527	     -5.98893044	      0.00000000	     69.48795222	     -6.73780382	      0.00000000
      5.26500000	      0.00000002	     -0.00289666	     94.32323392	      3.43010261	      7.75333653	    -40.33357874	     65.74434973	     -5.57041839	      0.00000000	     69.18909483	     -6.28204840	      0.00000000
      5.27000000	      0.00000001	     -0.00292323	     94.26521825	      3.53785798	      7.80307622	    -40.32703148	     65.31706892	     -5.13818275	      0.00000000	     68.74678913	     -5.84538990	      0.00000000
      5.27500000	      0.00000001	     -0.00291670	     94.27931557	      3.51167345	      7.79098902	    -40.33322200	     65.01145123	     -4.71895328	      0.00000000	     68.43591277	     -5.42263275	      0.00000000
      5.28000000	      0.00000001	     -0.00292917	     94.25250456	      3.56147300	      7.81397756	    -40.33319630	     64.71647844	     -4.30000924	      0.00000000	     67.98578462	     -4.98671425	      0.00000000
      5.28500000	      0.00000001	     -0.00294365	     94.22181159	      3.61848560	      7.84029719	    -40.32989892	     64.28775875	     -3.87034114	      0.00000000	     67.69145330	     -4.56440192	      0.00000000
      5.29000000	      0.00000001	     -0.00295826	     94.19133588	      3.67509729	      7.86643317	    -40.32911457	     63.99518753	     -3.45182400	      0.00000000	     67.24571699	     -3.91922022	      0.00000000
      5.29500000	      0.00000001	     -0.00297426	     94.15849897	      3.73609813	      7.89459710	    -40.32595317	     63.70591304	     -2.82458221	      0.00000000	     67.10488494	     -3.48770476	      0.00000000
      5.30000000	      0.00000001	     -0.00302009	     94.06727239	      3.90558518	      7.97285757	    -40.31421363	     63.29625294	     -2.39972704	      0.00000000	     66.68169728	     -3.05817501	      0.00000000
      5.30500000	      0.00000001	     -0.00300112	     94.10453182	      3.83635916	      7.94089098	    -40.32485284	     62.82622952	     -1.98606142	      0.00000000	     66.36691909	     -2.63605720	      0.00000000
      5.31000000	      0.00000001	     -0.00302814	     94.05164934	      3.93461315	      7.98626250	    -40.32021983	     62.54101420	     -1.56763899	      0.00000000	     65.93503989	     -2.20874255	      0.00000000
      5.31500000	      0.00000001	     -0.00305913	     93.99257661	      4.04437793	      8.03695454	    -40.31243115	     62.12877631	     -1.14614474	      0.00000000	     65.65195381	     -1.78830594	      0.00000000
      5.32000000	      0.00000001	     -0.00309469	     93.92671740	      4.16676463	      8.09348202	    -40.30646004	     61.84750360	     -0.72916904	      0.00000000	     65.22611819	     -1.36392515	      0.00000000
      5.32500000	      0.00000001	     -0.00310274	     93.91201958	      4.19407907	      8.10609865	    -40.30661463	     61.55559408	     -0.31232765	      0.00000000	     64.93067943	     -0.73439430	      0.00000000
      5.33000000	      0.00000001	     -0.00311321	     93.89315941	      4.22913047	      8.12228988	    -40.30594618	     61.26540565	      0.10405697	      0.00000000	     64.63680370	     -0.31464251	      0.00000000
